<?xml version="1.0" encoding="UTF-8"?>
<!DOCTYPE svg  PUBLIC '-//W3C//DTD SVG 1.1//EN'  'http://www.w3.org/Graphics/SVG/1.1/DTD/svg11.dtd'>
<svg enable-background="new 0 0 1648.61 1660.558" version="1.1" viewBox="0 0 1648.61 1660.558" xml:space="preserve" xmlns="http://www.w3.org/2000/svg">
<path d="m1481.6 1290.1c-43.542 45.356-90.712 85.269-138.79 128.81-3.629 2.721-7.257 5.443-10.885 8.164-0.907 0.907-1.814 2.721-2.721 3.629-9.071 7.257-17.235 14.514-26.307 21.771-19.957 18.142-39.006 34.471-57.149 53.52-3.629 5.443-9.071 9.071-12.7 14.514-64.406-4.536-127.9-16.328-188.68-38.099-2.721-0.907-4.536-0.907-7.257-1.814-86.177-32.656-164.19-80.734-224.06-152.4-7.257-8.164-13.607-14.514-19.957-23.585-17.235-25.399-32.656-48.077-45.356-74.384-9.978-21.771-18.142-43.542-24.492-67.127-3.628-15.421-7.257-30.842-9.071-46.263s-2.721-29.935-2.721-45.356c0.907-78.012 31.749-156.93 89.805-209.54-27.214 66.22-26.307 143.32-0.907 210.45 0.907 1.814 0 3.629 0.907 5.443 3.628 8.164 7.257 15.421 9.978 23.585 8.164 17.235 18.142 32.656 29.028 49.892 24.492 35.378 49.892 62.591 84.362 87.991 6.35 4.536 12.7 9.071 19.05 13.607 165.1 111.57 366.48 106.13 537.92 37.19zm-1066.8-1147.5c-14.514 16.328-29.935 31.749-46.263 47.17-39.006 34.471-75.291 65.313-114.3 100.69-29.935 27.214-59.87 53.52-87.084 83.455 9.978-3.628 19.957-8.164 29.935-11.793 25.399-8.164 49.892-15.421 76.198-21.771 2.721-0.907 5.443 0 8.164-0.907 96.155-20.864 188.68-20.864 283.02 4.536 12.7 3.628 24.492 8.164 37.192 11.793 3.628 1.814 7.257 3.628 11.793 4.536 1.814 0.907 3.628 1.814 5.443 2.721 1.814 0.907 4.536 0.907 6.35 1.814 26.307 12.7 50.799 22.678 75.291 40.82 1.814 0.907 3.628 1.814 5.443 2.721 6.35 5.443 12.7 9.071 19.05 13.607 60.777 46.263 105.23 104.32 129.72 175.07 0.907 1.814 0 3.628 0.907 5.443 22.678 63.499 19.05 133.35-3.628 195.94 82.548-76.198 106.13-199.57 73.477-306.61-7.257-20.864-13.607-40.82-23.585-60.777-16.328-34.471-36.285-63.499-60.777-93.434-36.285-42.635-75.291-74.384-122.46-104.32-1.814-0.907-4.536-1.814-6.35-2.721-33.564-19.957-66.22-35.378-101.6-48.985-2.721-0.907-4.536-0.907-7.257-1.814-38.099-14.514-76.198-23.585-117.02-29.935-24.494-3.627-48.079-5.441-71.664-7.255zm339.26-109.76c-55.334 21.771-111.58 36.285-169.63 51.706-53.52 14.514-103.41 30.842-154.21 48.985 107.95 6.35 211.36 38.099 306.61 97.062 3.628 2.721 7.257 5.443 10.885 8.164 107.04 69.848 181.42 170.54 203.2 295.72 10.885 64.406 4.536 128.81-22.678 187.77-0.907 0.907-1.814 2.721-2.721 3.628-14.514 33.564-36.285 62.591-62.591 87.084 21.771-7.257 41.728-16.328 61.684-28.121 25.399-16.328 46.263-34.471 66.22-57.149 4.536-5.443 7.257-10.885 11.793-15.421 23.585-29.028 37.192-61.684 48.984-97.062 0.907-3.628 0.907-6.35 2.721-9.978 0.907-1.814 0.907-3.628 0.907-5.443 0.907-1.814 0.907-2.721 1.814-4.536 0.907-3.628 0.907-7.257 1.814-10.885 0.907-1.814 1.814-2.721 1.814-4.536 15.421-78.92 6.35-154.21-19.957-227.69s-68.034-136.98-121.55-194.12c-7.257-6.35-13.607-14.514-20.864-20.864-19.05-17.235-36.285-32.656-58.056-48.077l-5.443-5.443c-6.35-4.536-12.7-9.071-19.05-13.607-9.071-5.443-17.235-11.793-26.307-17.235-11.789-7.257-22.674-14.513-35.374-19.956zm-213.17 1547.5c27.214 0 53.52 4.536 80.734 9.071 87.084 14.514 168.72 33.563 253.99 40.82-48.077-27.214-91.619-59.87-132.44-97.969-21.771-20.864-39.913-42.635-59.87-65.313-1.814-1.814-1.814-4.536-3.628-6.35-97.969-123.37-141.51-284.84-89.805-433.6 0.907-3.628 1.814-6.35 3.628-9.978 8.164-22.678 18.142-43.542 31.749-64.406 6.35-8.164 11.793-16.328 18.142-24.492 9.978-12.7 20.864-24.492 32.656-35.378 31.749-29.028 68.941-49.892 109.76-62.591-18.142-1.814-36.285-3.628-54.427-2.721-10.885 0.907-20.864 2.721-31.749 3.628-28.121 4.536-54.427 14.514-79.827 26.307-94.341 46.263-156.02 136.07-183.24 237.67-46.263 170.54 6.351 346.52 104.32 485.31zm566.95-1498.6c-74.384-6.35-144.23-22.678-219.52-35.378-39.913-6.35-77.105-10.885-116.11-15.421 28.121 16.328 54.427 32.656 80.734 53.52 19.05 14.514 35.378 28.121 52.613 44.449 23.585 22.678 43.542 44.449 64.406 70.755 19.049 24.492 34.471 48.985 49.892 75.291 1.814 3.628 3.628 8.164 6.35 11.793 1.814 4.536 3.628 8.164 5.443 12.7 0.907 1.814 2.721 3.628 3.629 5.443 23.585 52.613 39.913 106.13 45.356 163.28 4.536 43.542 1.814 86.177-8.164 129.72-16.328 67.127-47.17 127-100.69 172.35-0.907 0.907-1.814 2.721-2.721 3.628-30.842 25.399-64.406 45.356-101.6 56.242 25.399 4.536 50.799 3.628 76.198 0.907 50.799-7.257 96.155-27.214 137.88-58.963 19.05-15.421 35.378-30.842 51.706-48.985 12.7-15.421 23.585-30.842 34.471-48.077 28.121-46.263 44.449-92.526 54.427-145.14 29.026-161.47-20.866-321.12-114.3-448.12zm298.44 196.85c-9.071-2.721-17.235-9.978-26.307-14.514-2.721-1.814-5.443-3.628-8.164-6.35-4.536-2.721-8.164-4.536-12.7-7.257-69.848-48.985-127.9-94.341-199.57-140.6-3.628-2.721-6.35-4.536-9.978-6.35-1.814-0.907-2.721-2.721-4.536-3.628-3.629-1.814-6.35-3.628-9.978-5.443-3.628-2.721-6.35-4.536-9.978-6.35 41.728 61.684 76.198 127.9 95.248 202.29 0.907 1.814 1.814 4.536 2.721 6.35 17.235 66.22 23.585 130.63 17.235 197.75-9.978 106.13-52.613 207.73-135.16 279.39-2.721 1.814-5.443 3.628-8.164 6.35-0.907 0.907-2.721 1.814-4.536 2.721-0.907 0.907-2.721 2.721-3.629 3.628-1.814 0.907-2.721 1.814-4.536 2.721-0.907 0.907-1.814 2.721-3.629 3.628-65.313 47.17-141.51 67.127-217.71 55.334 14.514 9.978 30.842 18.142 47.17 25.399 17.235 7.257 33.563 11.793 52.613 16.328 17.235 2.721 33.564 4.536 50.799 5.443 12.7 0 26.307-0.907 39.006-1.814 33.563-4.536 66.22-12.7 97.062-26.307 55.334-24.492 101.6-60.777 141.51-107.04 31.749-37.192 56.241-77.105 76.198-121.55 48.987-113.39 58.966-239.48 39.009-360.12zm-1162 1104.9c19.957 9.071 37.192 21.771 56.242 34.471 54.427 38.099 97.969 71.663 152.4 109.76 24.492 16.328 47.17 31.749 71.663 45.356-55.334-78.92-94.341-167.82-108.86-265.79 0-1.814-1.814-4.536-1.814-6.35-11.793-83.455-7.257-165.1 19.957-244.02 22.678-64.406 58.056-120.65 108.86-166.91 1.814-0.907 2.721-1.814 4.536-2.721 29.935-27.214 64.406-47.17 102.5-60.777 6.35-1.814 12.7-3.629 19.05-6.35 39.913-11.793 80.734-13.607 120.65-7.257-33.564-23.585-72.57-38.099-113.39-44.449-46.263-7.257-90.712-2.721-135.16 10.885-41.728 12.7-78.012 31.749-113.39 58.056-94.341 71.663-148.77 168.72-175.98 282.12-2.721 9.978-3.628 18.142-6.35 28.121-0.907 4.536-0.907 9.978-1.814 14.514-0.907 1.814-1.814 4.536-1.814 6.35-10.888 72.569-9.074 144.23 2.719 214.99zm-87.084-994.2c-9.978 32.656-22.678 63.499-35.378 95.248-22.678 51.705-44.448 102.5-64.405 155.12-9.071 21.771-16.328 42.635-23.585 64.406 65.312-70.756 144.23-127.9 234.04-166 9.071-3.628 17.235-6.35 26.307-9.978 87.084-30.842 176.89-40.82 269.42-20.864 51.706 11.793 96.155 29.935 140.6 60.777 9.071 6.35 16.328 12.7 24.492 19.05 14.514 12.7 26.307 24.492 39.006 39.006 9.978 13.607 19.05 25.399 28.121 39.913 22.678 39.006 36.285 80.734 39.913 124.28 27.214-71.663 21.771-152.4-9.978-222.24-10.885-23.585-24.492-43.542-39.913-65.313-9.978-12.7-19.957-24.492-31.749-36.285-27.214-24.492-53.52-47.17-86.177-64.406-1.814-0.907-2.721-2.721-4.536-3.629-157.84-87.083-346.52-77.105-506.17-9.07zm736.58 1240c10.885-5.443 22.678-9.071 34.471-12.7 22.678-9.071 46.263-14.514 69.848-21.771 9.978-2.721 19.957-4.536 29.935-8.164 4.536-0.907 8.164-1.814 12.7-2.721 4.536-1.814 9.071-2.721 13.607-4.536 55.334-15.421 108.86-30.842 162.38-49.892-57.149-5.443-113.39-15.421-168.72-33.563-9.978-2.721-19.05-7.257-28.121-10.885-111.58-42.635-210.45-115.2-270.32-223.15-0.907-1.814-2.721-2.721-3.628-4.536-18.142-31.749-30.842-64.406-39.006-99.783-2.721-10.885-5.443-20.864-7.257-31.749-14.514-91.619 5.443-184.15 67.127-254.9 4.536-4.536 8.164-9.071 12.7-13.607 2.721-1.814 4.536-3.628 6.35-6.35 0.907-0.907 2.721-1.814 3.629-2.721-39.006 11.793-74.384 32.656-105.23 60.777-75.291 68.034-104.32 167.82-101.6 264.88 1.814 54.427 14.514 107.95 35.378 158.75 7.257 18.142 15.421 35.378 25.399 52.613 13.607 24.492 27.214 46.263 45.356 68.034 1.814 1.814 1.814 4.536 3.628 6.35 57.148 71.662 124.28 127 201.38 169.63zm-862.67-907.12c4.536 25.399 7.257 50.799 8.164 77.105 1.814 38.099 3.628 77.105 5.443 115.2 1.814 23.585 2.721 48.077 4.536 71.663 0 3.628 1.814 7.257 1.814 10.885 0.907 20.864 3.628 41.728 6.35 62.591 9.071-30.842 20.864-59.87 33.564-89.805 4.536-9.978 9.978-18.142 13.607-28.121 4.536-9.071 9.978-17.235 14.514-26.307 21.771-37.192 44.449-69.848 72.57-101.6 6.35-7.257 12.7-13.607 19.05-20.864 83.455-86.177 192.31-144.23 311.14-150.58 87.991-4.536 176.89 20.864 243.11 82.548l13.607 13.607c14.514 16.328 28.121 33.564 39.006 52.613-4.536-53.52-24.492-103.41-58.056-147.86-30.842-39.913-68.034-68.034-111.58-90.712-85.269-42.635-177.8-51.706-273.04-33.564s-176.89 57.149-252.18 117.02c-5.443 5.443-11.793 9.071-18.142 14.514-3.628 3.628-7.257 6.35-11.793 9.978-21.772 19.96-42.636 39.916-61.686 61.687zm27.832 349.83zm3.918 4.859c13.607 19.05 24.492 39.006 37.192 58.963 24.492 42.635 44.449 82.548 67.127 125.18 4.536 8.164 9.071 14.514 12.7 22.678 16.328 29.935 34.471 58.056 52.613 86.177-33.564-199.57 19.957-420.9 195.03-550.62 1.814-0.907 3.628-1.814 5.443-2.721 62.591-45.356 133.35-68.034 206.82-68.034 20.864 0.907 41.728 1.814 62.591 7.257 10.885 2.721 20.864 5.443 31.749 9.071 24.492 8.164 46.263 19.957 67.127 33.564-20.864-33.564-45.356-62.591-79.827-86.177-12.7-8.164-23.585-15.421-36.285-21.771-18.142-8.164-35.378-15.421-54.427-20.864-23.585-6.35-46.263-10.885-69.848-11.793-19.957-0.907-39.006-0.907-58.963 0.907-36.285 3.629-70.755 11.793-104.32 24.492-38.099 15.421-73.477 32.656-107.95 58.056-7.257 5.443-13.607 9.978-20.864 15.421-66.22 53.52-115.2 115.2-154.21 189.59-0.907 2.721-1.814 4.536-2.721 7.257-20.865 39.914-37.193 80.734-48.985 123.37zm1051.8-995.22zm296.83 200.36zm-651.17-251.8zm827.38 555.9c-19.957-28.121-35.378-57.149-52.613-87.084-2.721-5.443-4.536-9.978-7.257-15.421-6.35-9.071-9.978-18.142-15.421-27.214-29.935-57.149-59.87-110.67-94.341-164.19 25.399 159.65-1.814 328.38-105.23 462.63-5.443 6.35-9.978 12.7-15.421 19.05-36.285 41.728-78.013 74.384-126.09 99.783-1.814 0.907-3.629 0.907-5.443 1.814-15.421 9.071-31.749 14.514-48.984 20.864-3.629 0.907-6.35 0.907-9.978 2.721-1.814 0.907-3.629 0.907-5.443 0.907-1.814 0.907-2.721 0.907-4.536 1.814-1.814 0-3.628 0.907-5.443 0.907-1.814 0.907-2.721 1.814-4.536 1.814-82.548 17.235-167.82 5.443-234.94-42.635 7.257 16.328 19.957 29.028 30.842 44.449 0.907 0.907 2.721 1.814 3.628 2.721 17.235 20.864 37.192 34.471 59.87 49.892 23.585 15.421 48.077 24.492 74.384 31.749 118.83 34.471 238.57 2.721 340.17-69.848 7.257-5.443 13.607-9.978 20.864-15.421 3.628-2.721 6.35-5.443 9.978-8.164 4.536-4.536 9.978-9.071 14.514-13.607 1.814-1.814 3.629-1.814 5.443-3.628 21.771-21.771 41.728-40.82 60.777-65.313 1.814-1.814 1.814-4.536 3.628-6.35 53.522-68.032 88.9-142.42 111.58-222.24zm30.842 355.59c-12.7-78.92-9.071-157.84-15.421-237.67-2.721-33.564-4.536-67.127-9.978-100.69-27.214 89.805-70.755 173.26-134.25 245.83-1.814 1.814-3.629 2.721-5.443 4.536-88.898 100.69-213.17 166-346.52 166-99.783-0.907-199.57-40.82-259.44-129.72-3.629-5.443-6.35-9.978-9.978-15.421-0.907-1.814-0.907-2.721-1.814-4.536 6.35 126.09 107.95 227.69 226.78 263.06 120.65 36.285 247.64 17.235 359.22-39.006 37.192-19.05 71.663-39.913 105.23-66.22 11.793-9.978 23.585-19.05 35.378-29.935 13.607-12.7 26.307-24.492 39.913-38.099 5.444-6.35 11.794-11.792 16.329-18.142zm-128.68 339.73zm-1070.9-1143.7zm1072.6 1137.7c24.492-79.827 62.591-153.3 93.433-231.32 3.629-8.164 6.35-17.235 9.071-25.399 0.907-1.814 1.814-2.721 2.721-4.536 6.35-18.142 12.7-36.285 19.05-54.427-104.32 113.39-246.74 194.12-402.76 204.1-40.821 2.721-78.92 0-120.65-8.164-41.728-9.071-78.013-22.678-114.3-42.635-89.805-50.799-155.12-140.6-160.56-243.11-17.235 42.635-23.585 87.991-17.235 134.25 5.443 38.099 16.328 72.57 33.563 106.13 3.628 7.257 9.071 13.607 13.607 21.771 11.793 19.957 24.492 38.099 40.82 54.427 5.443 4.536 9.978 9.978 15.421 15.421 17.235 15.421 32.656 29.028 52.613 42.635 3.628 1.814 6.35 3.629 9.978 6.35 2.721 2.721 6.35 3.629 9.978 5.443 1.814 0.907 2.721 2.721 4.536 3.629 158.75 92.527 349.24 81.641 510.71 15.421zm-1461.5-559.38z"/>
</svg>
